<?xml version="1.0" standalone="no"?>
<!DOCTYPE svg PUBLIC "-//W3C//DTD SVG 20010904//EN"
 "http://www.w3.org/TR/2001/REC-SVG-20010904/DTD/svg10.dtd">
<svg version="1.0" xmlns="http://www.w3.org/2000/svg"
 height="80px" viewBox="0 0 1024.000000 1024.000000"
 preserveAspectRatio="xMidYMid meet">

<g transform="translate(0.000000,1024.000000) scale(0.100000,-0.100000)"
fill="#000000" stroke="none">
<path d="M4850 10234 c-1617 -94 -3059 -911 -3972 -2249 -473 -693 -758 -1485
-854 -2370 -25 -224 -25 -766 0 -990 64 -596 200 -1102 435 -1625 405 -898
1112 -1702 1961 -2230 668 -414 1386 -658 2205 -746 224 -25 766 -25 990 0
596 64 1102 200 1625 435 898 405 1702 1112 2230 1961 414 668 658 1386 746
2205 25 224 25 766 0 990 -64 596 -200 1102 -435 1625 -405 898 -1112 1702
-1961 2230 -667 414 -1394 660 -2200 745 -138 15 -633 27 -770 19z m568 -1080
c874 -119 1596 -785 1786 -1646 37 -169 49 -285 49 -468 0 -337 -68 -637 -213
-935 -309 -638 -907 -1072 -1625 -1181 -227 -34 -544 -19 -790 38 -610 141
-1149 573 -1425 1143 -145 298 -213 598 -213 935 0 183 12 299 49 468 138 626
569 1171 1149 1452 382 186 808 253 1233 194z m142 -4909 c828 -88 1686 -346
2230 -671 463 -276 710 -585 743 -928 5 -48 4 -49 -83 -165 -423 -562 -995
-1006 -1662 -1292 -380 -162 -830 -277 -1263 -320 -169 -18 -641 -18 -810 0
-1184 119 -2239 701 -2925 1612 -87 116 -88 117 -83 165 39 405 374 763 998
1065 586 284 1395 492 2130 548 160 13 545 5 725 -14z"/>
</g>
</svg>
