<svg xmlns="http://www.w3.org/2000/svg" version="1.0" height="120px" viewBox="0 0 612.000000 795.000000" preserveAspectRatio="xMidYMid meet">

<g transform="translate(0.000000,795.000000) scale(0.100000,-0.100000)" fill="#000000" stroke="none">
<path d="M3599 6757 c-1828 -1253 -2212 -1519 -2369 -1641 -147 -113 -438 -406 -538 -541 -91 -121 -234 -395 -297 -568 -134 -365 -192 -719 -181 -1097 8 -297 48 -541 132 -800 147 -457 377 -840 702 -1166 485 -489 1123 -791 1797 -854 864 -80 1750 244 2354 859 665 679 963 1602 810 2515 -105 628 -400 1188 -856 1627 -110 106 -264 237 -305 260 -12 7 -78 -34 -294 -185 -153 -106 -279 -197 -281 -202 -1 -5 34 -31 78 -57 243 -147 490 -386 655 -635 48 -73 53 -85 43 -105 -7 -12 -81 -116 -167 -231 -87 -118 -154 -218 -154 -230 0 -21 117 -304 131 -319 5 -4 97 -21 205 -37 199 -29 307 -48 312 -53 1 -1 8 -77 15 -169 10 -130 10 -194 1 -290 -12 -128 -39 -298 -52 -333 -8 -21 -14 -22 -446 -90 -17 -3 -38 -13 -47 -23 -16 -18 -127 -312 -127 -337 0 -7 55 -84 123 -172 68 -87 127 -165 131 -172 10 -16 -27 -73 -120 -181 -122 -144 -264 -272 -406 -368 l-75 -50 -56 36 -57 37 -2 1886 -3 1887 -221 -154 -221 -153 -6 -1343 c-4 -739 -7 -1596 -7 -1905 0 -346 -4 -564 -10 -568 -15 -9 -310 -73 -372 -80 l-58 -6 -2 1804 -3 1805 -221 -154 -221 -153 -6 -1157 c-4 -637 -7 -1377 -7 -1645 l0 -488 -52 5 c-50 6 -256 49 -346 74 l-42 11 -2 1453 -3 1454 -220 -153 -220 -153 -5 -1202 -5 -1202 -135 90 c-339 224 -612 541 -791 917 -162 342 -230 681 -216 1074 26 743 467 1464 1130 1845 53 30 416 275 805 543 389 269 1007 692 1372 942 l665 455 210 463 c245 542 237 523 228 522 -5 0 -758 -514 -1674 -1142z"/>
<path d="M3765 5752 c-584 -400 -1339 -916 -1678 -1147 l-617 -420 0 -348 0 -349 28 19 c16 10 772 526 1680 1148 l1652 1130 0 347 c0 192 -1 348 -2 348 -2 0 -480 -328 -1063 -728z"/>
<path d="M1889 4882 c-130 -85 -284 -209 -369 -298 l-65 -68 76 70 c104 97 246 209 359 284 52 34 99 67 105 71 23 22 -9 4 -106 -59z"/>
</g>
</svg>